# This file uses centimeters as units for non-parametric coordinates.

mtllib grounds 2.mtl
g default
v -290.000000 -4.500000 64.000000
v 290.000000 -4.500000 64.000000
v -290.000000 4.500000 64.000000
v 290.000000 4.500000 64.000000
v -290.000000 4.500000 -64.000000
v 290.000000 4.500000 -64.000000
v -290.000000 -4.500000 -64.000000
v 290.000000 -4.500000 -64.000000
vt 0.495706 0.221803
vt 0.495706 0.001992
vt 0.511161 0.221803
vt 0.511161 0.001992
vt 0.517050 0.221802
vt 0.517050 0.001992
vt 0.532505 0.221802
vt 0.532505 0.001992
vt 0.022585 0.998008
vt 0.022585 0.001992
vt 0.242395 0.998008
vt 0.242395 0.001992
vt 0.269817 0.998008
vt 0.269817 0.001992
vt 0.489628 0.998008
vt 0.489628 0.001992
vt 0.001063 0.998008
vt 0.001063 0.001992
vt 0.016518 0.998008
vt 0.016518 0.001992
vt 0.248473 0.998008
vt 0.248473 0.001992
vt 0.263929 0.998008
vt 0.263929 0.001992
vn 0.000000 0.000000 1.000000
vn 0.000000 0.000000 1.000000
vn 0.000000 0.000000 1.000000
vn 0.000000 0.000000 1.000000
vn 0.000000 1.000000 0.000000
vn 0.000000 1.000000 0.000000
vn 0.000000 1.000000 0.000000
vn 0.000000 1.000000 0.000000
vn 0.000000 0.000000 -1.000000
vn 0.000000 0.000000 -1.000000
vn 0.000000 0.000000 -1.000000
vn 0.000000 0.000000 -1.000000
vn 0.000000 -1.000000 0.000000
vn 0.000000 -1.000000 0.000000
vn 0.000000 -1.000000 0.000000
vn 0.000000 -1.000000 0.000000
vn 1.000000 0.000000 0.000000
vn 1.000000 0.000000 0.000000
vn 1.000000 0.000000 0.000000
vn 1.000000 0.000000 0.000000
vn -1.000000 0.000000 0.000000
vn -1.000000 0.000000 0.000000
vn -1.000000 0.000000 0.000000
vn -1.000000 0.000000 0.000000
s 1
g pCube32
usemtl initialShadingGroup
f 1/17/1 2/18/2 3/19/3
f 3/19/3 2/18/2 4/20/4
s 2
f 3/9/5 4/10/6 5/11/7
f 5/11/7 4/10/6 6/12/8
s 3
f 5/21/9 6/22/10 7/23/11
f 7/23/11 6/22/10 8/24/12
s 4
f 7/13/13 8/14/14 1/15/15
f 1/15/15 8/14/14 2/16/16
s 5
f 2/1/17 8/2/18 4/3/19
f 4/3/19 8/2/18 6/4/20
s 6
f 7/5/21 1/6/22 5/7/23
f 5/7/23 1/6/22 3/8/24
